<svg xmlns="http://www.w3.org/2000/svg" version="1.1" xmlns:xlink="http://www.w3.org/1999/xlink" xmlns:svgjs="http://svgjs.dev/svgjs" width="1000" height="625" viewBox="0 0 1000 625"><g transform="matrix(1,0,0,1,0,0)"><svg viewBox="0 0 576 360" data-background-color="#75dbcd" preserveAspectRatio="xMidYMid meet" height="625" width="1000" xmlns="http://www.w3.org/2000/svg" xmlns:xlink="http://www.w3.org/1999/xlink"><g id="tight-bounds" transform="matrix(1,0,0,1,0,0)"><svg viewBox="0 0 576 360" height="360" width="576"><g><svg></svg></g><g><svg viewBox="0 0 576 360" height="360" width="576"><g><path xmlns="http://www.w3.org/2000/svg" d="M132.115 90l155.885-90 155.885 90v180l-155.885 90-155.885-90z" fill="#01161e" fill-rule="nonzero" stroke="none" stroke-width="1" stroke-linecap="butt" stroke-linejoin="miter" stroke-miterlimit="10" stroke-dasharray="" stroke-dashoffset="0" font-family="none" font-weight="none" font-size="none" text-anchor="none" style="mix-blend-mode: normal" data-fill-palette-color="tertiary"></path></g><g transform="matrix(1,0,0,1,172.8,145.79706362153343)"><svg viewBox="0 0 230.4 68.40587275693312" height="68.40587275693312" width="230.4"><g><svg viewBox="0 0 230.4 68.40587275693312" height="68.40587275693312" width="230.4"><g><svg viewBox="0 0 230.4 68.40587275693312" height="68.40587275693312" width="230.4"><g><svg viewBox="0 0 230.4 68.40587275693312" height="68.40587275693312" width="230.4"><g id="textblocktransform"><svg viewBox="0 0 230.4 68.40587275693312" height="68.40587275693312" width="230.4" id="textblock"><g><svg viewBox="0 0 230.4 68.40587275693312" height="68.40587275693312" width="230.4"><g transform="matrix(1,0,0,1,0,0)"><svg width="230.4" viewBox="0.30000001192092896 -31.850000381469727 107.2699966430664 31.850000381469727" height="68.40587275693312" data-palette-color="#75dbcd"><path d="M11.53-27.75L0.3-27.75 0.3-31.85 25.4-31.85 25.4-27.75 14.15-27.75 15.23-28.85 15.23 0 10.48 0 10.48-28.85 11.53-27.75ZM35.22 0L30.42 0 30.42-31.85 41.1-31.85Q46.42-31.85 49.3-29.2 52.17-26.55 52.17-21.88L52.17-21.88Q52.17-17.25 49.3-14.61 46.42-11.98 41.1-11.98L41.1-11.98 35.22-11.98 35.22 0ZM35.22-27.75L35.22-16.13 41.1-16.13Q44.15-16.13 45.72-17.7 47.3-19.28 47.3-21.88L47.3-21.88Q47.3-24.5 45.72-26.13 44.15-27.75 41.1-27.75L41.1-27.75 35.22-27.75ZM63.47 0L58.67 0 58.67-31.85 69.34-31.85Q74.67-31.85 77.55-29.2 80.42-26.55 80.42-21.88L80.42-21.88Q80.42-17.25 77.55-14.61 74.67-11.98 69.34-11.98L69.34-11.98 63.47-11.98 63.47 0ZM63.47-27.75L63.47-16.13 69.34-16.13Q72.4-16.13 73.97-17.7 75.55-19.28 75.55-21.88L75.55-21.88Q75.55-24.5 73.97-26.13 72.4-27.75 69.34-27.75L69.34-27.75 63.47-27.75ZM93.69-27.75L82.47-27.75 82.47-31.85 107.57-31.85 107.57-27.75 96.32-27.75 97.39-28.85 97.39 0 92.64 0 92.64-28.85 93.69-27.75Z" opacity="1" transform="matrix(1,0,0,1,0,0)" fill="#75dbcd" class="wordmark-text-0" data-fill-palette-color="quaternary" id="text-0"></path></svg></g></svg></g></svg></g></svg></g><g></g></svg></g></svg></g></svg></g></svg></g><defs></defs></svg><rect width="576" height="360" fill="none" stroke="none" visibility="hidden"></rect></g></svg></g></svg>